# xmcd
#
# Track frame offsets:
#	150
#	17725
#	57147
#	81485
#
# Disc length: 1425 seconds
#
# Revision: 1
# Processed by: cddbd v1.5PL3 Copyright (c) Steve Scherf et al.
# Submitted via: audiograbber 1.83.01
#
DISCID=2a058f04
DTITLE=Crescendo - Are You Out There
DYEAR=1995
DGENRE=Dance
TTITLE0=Are You Out There (Video Edit)
TTITLE1=Are You Out There (Original Club Mix)
TTITLE2=Are You Out There (Alternative Club Mix)
TTITLE3=Are You Out There (Out There Mix)
EXTD=
EXTT0=
EXTT1=
EXTT2=
EXTT3=
PLAYORDER=
